General

Complete name                    : inception{PSP.IPOD}dvdrip.aaaevilacharya
Format                           : MPEG-4
Format profile                   : Base Media / Version 2
Codec ID                         : mp42
File size                        : 299 MiB
Duration                         : 2h 28mn
Overall bit rate                 : 282 Kbps
Encoded date                     : UTC 2010-11-27 14:24:03
Tagged date                      : UTC 2010-11-27 15:40:26


Video

ID                               : 1
Format                           : AVC
Format/Info                      : Advanced Video Codec
Format profile                   : Baseline@L3.0
Format settings, CABAC           : No
Format settings, ReFrames        : 1 frame
Codec ID                         : avc1
Codec ID/Info                    : Advanced Video Coding
Duration                         : 2h 28mn
Bit rate mode                    : Variable
Bit rate                         : 167 Kbps
Width                            : 496 pixels
Height                           : 208 pixels
Display aspect ratio             : 2.35:1
Frame rate mode                  : Variable
Frame rate                       : 23.931 fps
Original frame rate              : 23.976 fps
Minimum frame rate               : 11.987 fps
Maximum frame rate               : 23.981 fps
Color space                      : YUV
Chroma subsampling               : 4:2:0
Bit depth                        : 8 bits
Scan type                        : Progressive
Bits/(Pixel*Frame)               : 0.068
Stream size                      : 177 MiB (59%)
Encoded date                     : UTC 2010-11-27 14:24:03
Tagged date                      : UTC 2010-11-27 15:40:26


Audio

ID                               : 2
Format                           : AAC
Format/Info                      : Advanced Audio Codec
Format version                   : Version 4
Format profile                   : LC
Format settings, SBR             : No
Codec ID                         : 40
Duration                         : 2h 28mn
Bit rate mode                    : Variable
Bit rate                         : 112 Kbps
Maximum bit rate                 : 148 Kbps
Channel(s)                       : 2 channels
Channel positions                : Front: L R
Sampling rate                    : 44.1 KHz
Stream size                      : 119 MiB (40%)
Encoded date                     : UTC 2010-11-27 14:24:03
Tagged date                      : UTC 2010-11-27 15:40:26

SCREENSHOTS
 
http://img194.imageshack.us/img194/5038/inceptiondvdrippspipoda.jpg
 
http://img28.imageshack.us/img28/5038/inceptiondvdrippspipoda.jpg
 
http://img98.imageshack.us/img98/5038/inceptiondvdrippspipoda.jpg
 
http://img23.imageshack.us/img23/5038/inceptiondvdrippspipoda.jpg
 
http://img502.imageshack.us/img502/5038/inceptiondvdrippspipoda.jpg
 
http://img196.imageshack.us/img196/5038/inceptiondvdrippspipoda.jpg

